<?xml version="1.0" standalone="no"?>
<!DOCTYPE svg PUBLIC "-//W3C//DTD SVG 20010904//EN"
 "http://www.w3.org/TR/2001/REC-SVG-20010904/DTD/svg10.dtd">
<svg version="1.0" xmlns="http://www.w3.org/2000/svg"
 width="244.000000pt" height="229.000000pt" viewBox="0 0 244.000000 229.000000"
 preserveAspectRatio="xMidYMid meet">

<g transform="translate(0.000000,229.000000) scale(0.100000,-0.100000)"
fill="#000000" stroke="none">
<path d="M1176 2188 c-9 -24 -74 -205 -144 -403 l-128 -360 -434 4 -434 3 330
-247 c181 -136 336 -250 345 -252 9 -3 32 0 50 5 76 22 346 102 374 111 17 5
71 21 120 36 50 15 119 36 155 46 36 11 88 26 115 34 28 8 124 37 215 64 91
27 174 51 185 54 21 5 287 84 387 115 55 17 52 17 -389 22 l-445 5 -140 400
c-76 220 -141 401 -142 403 -2 2 -11 -16 -20 -40z"/>
<path d="M1422 777 c-167 -112 -228 -157 -219 -164 6 -6 82 -57 167 -115 85
-58 246 -166 357 -241 111 -75 204 -137 206 -137 2 0 -58 177 -133 393 -76
217 -139 399 -141 406 -3 8 -90 -44 -237 -142z"/>
</g>
</svg>
